<svg version="1.1" id="Layer_1" xmlns="http://www.w3.org/2000/svg" xmlns:xlink="http://www.w3.org/1999/xlink" x="0px" y="0px"
	 width="70" viewBox="0 0 494 76" enable-background="new 0 0 494 76" xml:space="preserve">
<path fill="#00FF73" opacity="1.000000" stroke="none" 
	d="
M261.000000,77.000000 
	C234.312439,77.000000 207.624878,77.000000 180.733154,76.650925 
	C180.186630,75.947601 179.896866,75.364609 179.494339,75.272072 
	C163.939499,71.696053 154.607040,62.336792 151.696274,46.411228 
	C148.749451,30.288542 153.827332,11.440608 171.279251,3.875741 
	C172.392502,3.393177 173.102432,1.980157 174.000000,0.999996 
	C204.687561,1.000000 235.375122,1.000000 266.249329,1.305921 
	C268.366364,2.754446 270.360596,3.803168 272.212311,5.061525 
	C275.034088,6.979085 278.264374,8.605735 280.428772,11.123179 
	C287.375031,19.202574 290.295868,28.639437 290.131104,39.468388 
	C289.866516,56.860760 279.455322,71.409187 262.581757,75.080109 
	C261.945404,75.218552 261.522400,76.337807 261.000000,77.000000 
M247.934341,60.994770 
	C264.532959,62.143963 273.343475,50.130959 273.903564,38.935383 
	C274.351532,29.981535 269.787567,23.414694 262.300171,18.735907 
	C254.033585,13.570177 245.716476,14.313415 238.128906,19.580725 
	C230.691025,24.744087 226.112061,35.362106 228.965805,44.165356 
	C231.932968,53.318489 238.318542,58.292915 247.934341,60.994770 
z"/>
<path fill="#000000" opacity="1.000000" stroke="none" 
	d="
M261.468658,77.000000 
	C261.522400,76.337807 261.945404,75.218552 262.581757,75.080109 
	C279.455322,71.409187 289.866516,56.860760 290.131104,39.468388 
	C290.295868,28.639437 287.375031,19.202574 280.428772,11.123179 
	C278.264374,8.605735 275.034088,6.979085 272.212311,5.061525 
	C270.360596,3.803168 268.366364,2.754446 266.717987,1.305921 
	C343.000000,1.000000 419.000000,1.000000 495.000000,1.004335 
	C495.000000,2.339139 495.000000,3.669607 494.531860,5.500038 
	C488.791077,6.000000 483.518463,6.000000 477.684692,6.000000 
	C477.684692,19.335903 477.684692,32.148602 477.684692,45.721851 
	C476.332397,44.634369 475.606903,44.228806 475.116882,43.630421 
	C467.062622,33.794598 459.097504,23.885021 450.970062,14.110295 
	C448.566956,11.220097 446.165070,7.464539 442.969818,6.321276 
	C439.179718,4.965175 434.533234,6.002411 430.000000,6.002411 
	C430.000000,30.010094 430.000000,53.505047 430.000000,77.000000 
	C426.638702,77.000000 423.277435,77.000000 419.111572,76.618256 
	C418.612213,71.563103 418.917419,66.889694 419.249908,61.798340 
	C405.995178,61.798340 393.588837,61.798340 381.299927,61.798340 
	C381.299927,56.659416 381.299927,51.921818 381.299927,46.800224 
	C392.004089,46.800224 402.412872,46.800224 412.700317,46.800224 
	C412.700317,42.328163 412.700317,38.255928 412.700317,33.801231 
	C401.996857,33.801231 391.588470,33.801231 381.299438,33.801231 
	C381.299438,28.995716 381.299438,24.590479 381.299438,19.801531 
	C393.335419,19.801531 405.076141,19.801531 416.701263,19.801531 
	C416.701263,14.997113 416.701263,10.591870 416.701263,6.293476 
	C399.001434,6.293476 381.601807,6.293476 364.000000,6.293476 
	C364.000000,30.057566 364.000000,53.528782 364.000000,77.000000 
	C355.979095,77.000000 347.958191,77.000000 339.178589,76.692886 
	C340.027679,75.359192 341.534332,74.102463 343.259979,73.344086 
	C353.069489,69.033012 355.060303,60.724953 353.868958,51.409107 
	C352.934753,44.103931 347.844482,39.908283 340.841217,37.955463 
	C333.902191,36.020546 326.878510,34.291054 320.131683,31.817547 
	C317.730011,30.937057 316.031830,28.137569 314.012543,26.214062 
	C316.050262,24.123589 317.911438,21.804077 320.200623,20.039877 
	C321.334503,19.166027 323.331451,18.843309 324.808502,19.079733 
	C332.049225,20.238726 339.246429,21.669573 346.926910,23.090952 
	C347.683807,21.259731 348.649628,18.369204 350.038849,15.698961 
	C351.863586,12.191601 350.665100,10.378595 347.290558,8.993885 
	C335.400238,4.114751 323.188873,3.372615 311.144043,7.488932 
	C296.384125,12.533128 291.957825,32.222992 304.032745,41.297337 
	C307.731812,44.077190 312.632507,45.388519 317.132111,46.939613 
	C322.722870,48.866859 328.599487,50.006565 334.100891,52.136677 
	C337.748810,53.549129 338.357391,59.312469 335.084229,60.814476 
	C331.369293,62.519226 326.838135,64.348396 323.094238,63.684593 
	C315.659180,62.366318 308.520691,59.375378 301.025024,57.001339 
	C300.636963,57.915936 299.874390,59.836559 299.016785,61.713772 
	C294.929016,70.661293 294.968384,70.764565 304.847992,74.012634 
	C306.064789,74.412674 307.358765,74.640572 308.489868,75.203545 
	C308.865021,75.390259 308.841339,76.378319 309.000000,77.000000 
	C293.312439,77.000000 277.624878,77.000000 261.468658,77.000000 
z"/>
<path fill="#000000" opacity="1.000000" stroke="none" 
	d="
M173.531342,0.999996 
	C173.102432,1.980157 172.392502,3.393177 171.279251,3.875741 
	C153.827332,11.440608 148.749451,30.288542 151.696274,46.411228 
	C154.607040,62.336792 163.939499,71.696053 179.494339,75.272072 
	C179.896866,75.364609 180.186630,75.947601 180.264496,76.650925 
	C167.645767,77.000000 155.291550,77.000000 142.121750,76.616936 
	C141.537460,74.642120 141.966492,73.050812 141.970016,71.458557 
	C142.015366,50.974823 142.004272,30.490948 141.989655,10.007121 
	C141.988754,8.737373 141.838989,7.467733 141.763992,6.284982 
	C136.022705,6.284982 130.619797,6.284982 124.829918,6.284982 
	C124.829918,15.304752 124.829918,24.045383 124.829918,32.721832 
	C114.699432,32.721832 104.965218,32.721832 94.843575,32.721832 
	C94.843575,23.709169 94.843575,14.968244 94.843575,6.274816 
	C89.042892,6.274816 83.640152,6.274816 78.000000,6.274816 
	C78.000000,30.032526 78.000000,53.516262 78.000000,77.000000 
	C69.979103,77.000000 61.958202,77.000000 53.177666,76.687012 
	C53.771336,75.582451 55.177334,74.867844 56.467766,73.984436 
	C59.913452,71.625549 63.373951,69.277626 66.676132,66.727928 
	C67.423470,66.150887 68.164482,64.145859 67.871216,63.859184 
	C64.732346,60.790878 61.444267,57.861473 58.012432,55.125626 
	C57.624023,54.815990 55.868740,55.690742 55.143848,56.413834 
	C45.889038,65.645622 31.845827,64.586807 23.739307,55.454666 
	C15.487591,46.158962 17.658167,28.641991 28.689138,22.838369 
	C39.526054,17.136850 49.188000,19.313154 57.539669,27.873018 
	C61.273865,24.580404 64.808556,21.463705 68.421448,18.278048 
	C67.308899,16.637312 66.718292,15.199851 65.667290,14.300317 
	C46.238346,-2.328559 10.749771,3.267338 2.907033,30.072025 
	C2.773539,30.528282 1.657535,30.697071 1.000000,31.000000 
	C1.000000,21.021595 1.000000,11.043192 1.000000,1.000000 
	C58.354214,1.000000 115.708450,1.000000 173.531342,0.999996 
z"/>
<path fill="#FFFFFF" opacity="1.000000" stroke="none" 
	d="
M430.467590,77.000000 
	C430.000000,53.505047 430.000000,30.010094 430.000000,6.002411 
	C434.533234,6.002411 439.179718,4.965175 442.969818,6.321276 
	C446.165070,7.464539 448.566956,11.220097 450.970062,14.110295 
	C459.097504,23.885021 467.062622,33.794598 475.116882,43.630421 
	C475.606903,44.228806 476.332397,44.634369 477.684692,45.721851 
	C477.684692,32.148602 477.684692,19.335903 477.684692,6.000000 
	C483.518463,6.000000 488.791077,6.000000 494.531860,6.000000 
	C495.000000,29.545622 495.000000,53.091244 495.000000,77.000000 
	C489.986633,77.000000 484.964539,77.000000 479.471130,76.622131 
	C478.688873,75.359367 478.589691,74.303947 478.035126,73.615082 
	C469.387848,62.873253 460.688477,52.173252 451.981659,41.479458 
	C450.670074,39.868523 449.260254,38.337601 447.000000,35.740185 
	C447.000000,43.884590 447.000000,50.479805 447.000000,57.075020 
	C447.000000,63.716679 447.000000,70.358337 447.000000,77.000000 
	C441.645081,77.000000 436.290131,77.000000 430.467590,77.000000 
z"/>
<path fill="#FFFFFF" opacity="1.000000" stroke="none" 
	d="
M78.467606,77.000000 
	C78.000000,53.516262 78.000000,30.032526 78.000000,6.274816 
	C83.640152,6.274816 89.042892,6.274816 94.843575,6.274816 
	C94.843575,14.968244 94.843575,23.709169 94.843575,32.721832 
	C104.965218,32.721832 114.699432,32.721832 124.829918,32.721832 
	C124.829918,24.045383 124.829918,15.304752 124.829918,6.284982 
	C130.619797,6.284982 136.022705,6.284982 141.763992,6.284982 
	C141.838989,7.467733 141.988754,8.737373 141.989655,10.007121 
	C142.004272,30.490948 142.015366,50.974823 141.970016,71.458557 
	C141.966492,73.050812 141.537460,74.642120 141.653091,76.616936 
	C136.645065,77.000000 131.290146,77.000000 125.814522,76.616928 
	C125.462555,74.475868 125.048775,72.719643 125.031624,70.959564 
	C124.957680,63.369507 125.000000,55.778316 125.000000,48.290085 
	C114.673042,48.290085 104.939529,48.290085 95.000000,48.290085 
	C95.000000,58.052460 95.000000,67.526230 95.000000,77.000000 
	C89.645073,77.000000 84.290138,77.000000 78.467606,77.000000 
z"/>
<path fill="#FFFFFF" opacity="1.000000" stroke="none" 
	d="
M364.468658,77.000000 
	C364.000000,53.528782 364.000000,30.057566 364.000000,6.293476 
	C381.601807,6.293476 399.001434,6.293476 416.701263,6.293476 
	C416.701263,10.591870 416.701263,14.997113 416.701263,19.801531 
	C405.076141,19.801531 393.335419,19.801531 381.299438,19.801531 
	C381.299438,24.590479 381.299438,28.995716 381.299438,33.801231 
	C391.588470,33.801231 401.996857,33.801231 412.700317,33.801231 
	C412.700317,38.255928 412.700317,42.328163 412.700317,46.800224 
	C402.412872,46.800224 392.004089,46.800224 381.299927,46.800224 
	C381.299927,51.921818 381.299927,56.659416 381.299927,61.798340 
	C393.588837,61.798340 405.995178,61.798340 419.249908,61.798340 
	C418.917419,66.889694 418.612213,71.563103 418.653503,76.618256 
	C400.979095,77.000000 382.958221,77.000000 364.468658,77.000000 
z"/>
<path fill="#FFFFFF" opacity="1.000000" stroke="none" 
	d="
M309.468658,77.000000 
	C308.841339,76.378319 308.865021,75.390259 308.489868,75.203545 
	C307.358765,74.640572 306.064789,74.412674 304.847992,74.012634 
	C294.968384,70.764565 294.929016,70.661293 299.016785,61.713772 
	C299.874390,59.836559 300.636963,57.915936 301.025024,57.001339 
	C308.520691,59.375378 315.659180,62.366318 323.094238,63.684593 
	C326.838135,64.348396 331.369293,62.519226 335.084229,60.814476 
	C338.357391,59.312469 337.748810,53.549129 334.100891,52.136677 
	C328.599487,50.006565 322.722870,48.866859 317.132111,46.939613 
	C312.632507,45.388519 307.731812,44.077190 304.032745,41.297337 
	C291.957825,32.222992 296.384125,12.533128 311.144043,7.488932 
	C323.188873,3.372615 335.400238,4.114751 347.290558,8.993885 
	C350.665100,10.378595 351.863586,12.191601 350.038849,15.698961 
	C348.649628,18.369204 347.683807,21.259731 346.926910,23.090952 
	C339.246429,21.669573 332.049225,20.238726 324.808502,19.079733 
	C323.331451,18.843309 321.334503,19.166027 320.200623,20.039877 
	C317.911438,21.804077 316.050262,24.123589 314.012543,26.214062 
	C316.031830,28.137569 317.730011,30.937057 320.131683,31.817547 
	C326.878510,34.291054 333.902191,36.020546 340.841217,37.955463 
	C347.844482,39.908283 352.934753,44.103931 353.868958,51.409107 
	C355.060303,60.724953 353.069489,69.033012 343.259979,73.344086 
	C341.534332,74.102463 340.027679,75.359192 338.709961,76.692886 
	C329.312439,77.000000 319.624878,77.000000 309.468658,77.000000 
z"/>
<path fill="#FFFFFF" opacity="1.000000" stroke="none" 
	d="
M1.000000,31.468403 
	C1.657535,30.697071 2.773539,30.528282 2.907033,30.072025 
	C10.749771,3.267338 46.238346,-2.328559 65.667290,14.300317 
	C66.718292,15.199851 67.308899,16.637312 68.421448,18.278048 
	C64.808556,21.463705 61.273865,24.580404 57.539669,27.873018 
	C49.188000,19.313154 39.526054,17.136850 28.689138,22.838369 
	C17.658167,28.641991 15.487591,46.158962 23.739307,55.454666 
	C31.845827,64.586807 45.889038,65.645622 55.143848,56.413834 
	C55.868740,55.690742 57.624023,54.815990 58.012432,55.125626 
	C61.444267,57.861473 64.732346,60.790878 67.871216,63.859184 
	C68.164482,64.145859 67.423470,66.150887 66.676132,66.727928 
	C63.373951,69.277626 59.913452,71.625549 56.467766,73.984436 
	C55.177334,74.867844 53.771336,75.582451 52.709015,76.687012 
	C44.312435,77.000000 35.624874,77.000000 26.761911,76.680702 
	C26.388111,76.097076 26.242979,75.681519 25.983648,75.590164 
	C14.383305,71.504196 6.082834,64.239647 2.903257,51.918682 
	C2.789553,51.478077 1.657463,51.300282 1.000000,51.000000 
	C1.000000,44.645603 1.000000,38.291203 1.000000,31.468403 
z"/>
<path fill="#000000" opacity="1.000000" stroke="none" 
	d="
M95.468658,77.000000 
	C95.000000,67.526230 95.000000,58.052460 95.000000,48.290085 
	C104.939529,48.290085 114.673042,48.290085 125.000000,48.290085 
	C125.000000,55.778316 124.957680,63.369507 125.031624,70.959564 
	C125.048775,72.719643 125.462555,74.475868 125.346916,76.616928 
	C115.312439,77.000000 105.624878,77.000000 95.468658,77.000000 
z"/>
<path fill="#000000" opacity="1.000000" stroke="none" 
	d="
M447.468658,77.000000 
	C447.000000,70.358337 447.000000,63.716679 447.000000,57.075020 
	C447.000000,50.479805 447.000000,43.884590 447.000000,35.740185 
	C449.260254,38.337601 450.670074,39.868523 451.981659,41.479458 
	C460.688477,52.173252 469.387848,62.873253 478.035126,73.615082 
	C478.589691,74.303947 478.688873,75.359367 478.999939,76.622131 
	C468.645782,77.000000 458.291534,77.000000 447.468658,77.000000 
z"/>
<path fill="#000000" opacity="1.000000" stroke="none" 
	d="
M1.000000,51.468666 
	C1.657463,51.300282 2.789553,51.478077 2.903257,51.918682 
	C6.082834,64.239647 14.383305,71.504196 25.983648,75.590164 
	C26.242979,75.681519 26.388111,76.097076 26.293255,76.680702 
	C17.738834,77.000000 9.477667,77.000000 1.000000,77.000000 
	C1.000000,68.647018 1.000000,60.292175 1.000000,51.468666 
z"/>
<path fill="#000000" opacity="1.000000" stroke="none" 
	d="
M247.502045,60.977486 
	C238.318542,58.292915 231.932968,53.318489 228.965805,44.165356 
	C226.112061,35.362106 230.691025,24.744087 238.128906,19.580725 
	C245.716476,14.313415 254.033585,13.570177 262.300171,18.735907 
	C269.787567,23.414694 274.351532,29.981535 273.903564,38.935383 
	C273.343475,50.130959 264.532959,62.143963 247.502045,60.977486 
z"/>
</svg>